<svg width="520" height="520" viewBox="0 0 520 520" fill="none" xmlns="http://www.w3.org/2000/svg">
  <rect width="520" height="520" rx="28" fill="#efefec"/>
  <path d="M27 500C88 446 120 389 145 330C169 272 171 212 181 151C188 104 207 62 252 20C266 7 287 19 281 38C265 88 246 127 236 176C263 145 303 112 355 87C375 77 393 99 379 116C338 167 300 205 270 250C303 234 347 220 411 223C432 224 439 252 421 263C367 294 320 313 272 332C303 341 329 356 347 382C357 396 346 415 329 412C291 405 259 391 231 369C206 424 153 472 72 518L27 500Z" fill="#2a211c"/>
  <path d="M128 406C141 370 160 328 185 286C198 263 224 255 246 268C267 280 275 305 262 327L233 377C223 394 229 416 247 425C264 434 284 428 294 411L319 368C330 348 355 342 374 354C393 366 399 391 387 410L372 434C346 476 302 501 252 501H98C97 463 107 431 128 406Z" fill="#f2c7b3"/>
  <path d="M195 284C216 292 236 302 254 315" stroke="#d79d89" stroke-width="10" stroke-linecap="round"/>
  <path d="M225 378C249 386 272 395 294 411" stroke="#d79d89" stroke-width="10" stroke-linecap="round"/>
  <path d="M320 368C344 377 365 391 384 409" stroke="#d79d89" stroke-width="10" stroke-linecap="round"/>
  <path d="M93 513C107 448 111 393 105 340C102 319 116 300 137 297C158 294 177 309 180 330C188 383 179 440 153 513H93Z" fill="#f2c7b3"/>
  <path d="M92 514C111 450 116 393 105 338" stroke="#2a211c" stroke-width="12" stroke-linecap="round"/>
  <circle cx="245" cy="428" r="7" fill="#9e554f"/>
  <circle cx="375" cy="413" r="7" fill="#9e554f"/>
  <circle cx="259" cy="327" r="7" fill="#9e554f"/>
</svg>
